# xmcd CD database file
#
# Track frame offsets:
#	150
#	32833
#	84844
#	116111
#	142077
#	258972
#
# Disc length: 4313 seconds
#
# Revision: 0
# Processed by: cddbd v1.5.2PL0 Copyright (c) Steve Scherf et al.
# Submitted via: CDex 1.70beta3
#
DISCID=4c10d706
DTITLE=Joe Morris - Solos Bimhuis
DYEAR=2015
DGENRE=Jazz
TTITLE0=Trunk
TTITLE1=Fate
TTITLE2=Give
TTITLE3=Dream
TTITLE4=Story
TTITLE5=See
EXTD=YEAR: 2015
EXTT0=
EXTT1=
EXTT2=
EXTT3=
EXTT4=
EXTT5=
PLAYORDER=
